<?xml version="1.0" standalone="no"?>
<!DOCTYPE svg PUBLIC "-//W3C//DTD SVG 1.1//EN" "http://www.w3.org/Graphics/SVG/1.1/DTD/svg11.dtd">
<svg
  t="1741928944396"
  class="icon"
  viewBox="0 0 1024 1024"
  version="1.1"
  xmlns="http://www.w3.org/2000/svg"
  p-id="2663"
  width="16"
  height="16"
  xmlns:xlink="http://www.w3.org/1999/xlink"
>
  <path
    d="M170.88 663.04c-61.44 61.44-82.88 143.68-59.84 204.48l-58.88 58.56a48 48 0 1 0 67.84 67.84l58.88-58.88c60.8 23.04 143.04 0 204.48-59.84l213.76-213.76L384 448zM915.52 130.56a186.88 186.88 0 0 0-229.12-20.8 56 56 0 0 0-10.56-13.76 212.16 212.16 0 0 0-277.76-18.56A444.8 444.8 0 0 0 256 256a56 56 0 0 0 102.4 42.88 334.4 334.4 0 0 1 107.84-133.44 99.84 99.84 0 0 1 131.2 8.96 55.68 55.68 0 0 0 7.68 6.08l-153.92 155.2a27.2 27.2 0 0 0 0 38.4L672 595.2a27.2 27.2 0 0 0 38.4 0l194.56-194.56a192 192 0 0 0 10.56-270.08z"
    fill="#231F20"
    p-id="2664"
  ></path>
</svg>
